<svg xmlns="http://www.w3.org/2000/svg" xmlns:xlink="http://www.w3.org/1999/xlink" width="1200" height="1200" viewBox="0 0 512 512" fill="none" class="h-full w-full" id="iconWithBackground"><rect id="r4" width="512" height="512" x="0" y="0" rx="80" fill="url(#linearGradient-iconWithBackground)" stroke="#000000" stroke-width="0" stroke-opacity="100%" paint-order="stroke"/><defs><linearGradient id="linearGradient-iconWithBackground" gradientUnits="userSpaceOnUse" gradientTransform="rotate(0)" style="transform-origin:center center"><stop stop-color="#a2c579"/><stop offset="1" stop-color="#61a3ba"/></linearGradient><radialGradient id="glare" cx="0" cy="0" r="1" gradientUnits="userSpaceOnUse" gradientTransform="translate(256) rotate(90) scale(512)"><stop stop-color="white"/><stop offset="1" stop-color="white" stop-opacity="0"/></radialGradient><clipPath id="clip"><use xlink:href="#r4"/></clipPath></defs><svg xmlns="http://www.w3.org/2000/svg" width="340" height="340" viewBox="0 0 32 32" x="86" y="86"><path fill="#ffffff" d="M12 30H9v-2h3V15.566l-3.515-2.109l1.03-1.714l3.514 2.108A2.011 2.011 0 0 1 14 15.566V28a2.002 2.002 0 0 1-2 2Z"/><path fill="#ffffff" d="M22 30h-3a2.002 2.002 0 0 1-2-2V17h6a4 4 0 0 0 3.981-4.396A4.149 4.149 0 0 0 22.785 9h-1.583l-.177-.779C20.452 5.696 18.031 4 15 4a6.02 6.02 0 0 0-5.441 3.486l-.309.667l-.863-.114A2.771 2.771 0 0 0 8 8a4 4 0 1 0 0 8v2A6 6 0 1 1 8 6l.079.001A8.027 8.027 0 0 1 15 2c3.679 0 6.692 1.978 7.752 5h.033a6.164 6.164 0 0 1 6.187 5.414A6.001 6.001 0 0 1 23 19h-4v9h3Z"/></svg></svg>